<svg xmlns="http://www.w3.org/2000/svg" xmlns:xlink="http://www.w3.org/1999/xlink" width="500" zoomAndPan="magnify" viewBox="0 0 375 374.999991" height="500" preserveAspectRatio="xMidYMid meet" version="1.0"><defs><g/><clipPath id="800854422e"><path d="M 30.886719 167 L 280 167 L 280 292 L 30.886719 292 Z M 30.886719 167 " clip-rule="nonzero"/></clipPath><clipPath id="56556ffe40"><path d="M 30.886719 10 L 344.386719 10 L 344.386719 324 L 30.886719 324 Z M 30.886719 10 " clip-rule="nonzero"/></clipPath></defs><path fill="#55ac37" d="M 39.082031 51.300781 C 57.992188 8.097656 168.730469 0 187.636719 51.300781 C 171.429688 97.199219 57.992188 97.199219 39.082031 51.300781 Z M 39.082031 51.300781 " fill-opacity="1" fill-rule="nonzero"/><path fill="#55ac37" d="M 336.1875 51.703125 C 317.28125 8.5 206.542969 0.402344 187.636719 51.703125 C 203.84375 97.601562 317.28125 97.601562 336.1875 51.703125 Z M 336.1875 51.703125 " fill-opacity="1" fill-rule="nonzero"/><path fill="#9ed44a" d="M 41.785156 40.875 C 60.347656 10.847656 169.074219 5.21875 187.636719 40.875 C 171.726562 72.773438 60.347656 72.773438 41.785156 40.875 Z M 41.785156 40.875 " fill-opacity="1" fill-rule="nonzero"/><path fill="#9ed44a" d="M 338.890625 40.875 C 319.640625 10.847656 206.886719 5.21875 187.636719 40.875 C 204.136719 72.773438 319.640625 72.773438 338.890625 40.875 Z M 338.890625 40.875 " fill-opacity="1" fill-rule="nonzero"/><path fill="#67a5d2" d="M 338.890625 167.398438 C 338.890625 187.253906 334.976562 206.917969 327.375 225.261719 C 319.773438 243.605469 308.632812 260.273438 294.589844 274.3125 C 280.542969 288.355469 263.871094 299.492188 245.519531 307.089844 C 227.167969 314.6875 207.5 318.597656 187.636719 318.597656 C 167.773438 318.597656 148.105469 314.6875 129.753906 307.089844 C 111.402344 299.492188 94.730469 288.355469 80.683594 274.3125 C 66.636719 260.273438 55.496094 243.605469 47.894531 225.261719 C 40.296875 206.917969 36.382812 187.253906 36.382812 167.398438 Z M 338.890625 167.398438 " fill-opacity="1" fill-rule="nonzero"/><g clip-path="url(#800854422e)"><path fill="#87d1ee" d="M 279.46875 167.398438 C 279.46875 183.710938 276.253906 199.859375 270.011719 214.929688 C 263.769531 229.996094 254.617188 243.6875 243.078125 255.222656 C 231.542969 266.753906 217.84375 275.902344 202.769531 282.144531 C 187.695312 288.386719 171.539062 291.597656 155.226562 291.597656 C 138.910156 291.597656 122.753906 288.386719 107.679688 282.144531 C 92.605469 275.902344 78.90625 266.753906 67.371094 255.222656 C 55.832031 243.6875 46.683594 229.996094 40.4375 214.929688 C 34.195312 199.859375 30.980469 183.710938 30.980469 167.398438 Z M 279.46875 167.398438 " fill-opacity="1" fill-rule="nonzero"/></g><path fill="#9ed44a" d="M 101.207031 167.398438 L 36.382812 167.398438 C 35.480469 179.097656 36.921875 208.980469 49.886719 234.898438 C 62.851562 260.820312 85.898438 281.699219 95.804688 288.898438 L 108.542969 284.125 C 114.195312 282.003906 118.703125 277.617188 120.976562 272.027344 L 140.441406 224.128906 C 146.214844 209.925781 135.757812 194.398438 120.421875 194.398438 L 112.007812 194.398438 C 106.042969 194.398438 101.207031 189.5625 101.207031 183.597656 Z M 101.207031 167.398438 " fill-opacity="1" fill-rule="nonzero"/><path fill="#55ac37" d="M 225.449219 183.597656 L 225.449219 167.398438 L 319.984375 167.398438 L 306.480469 213.300781 C 296.574219 223.199219 272.445312 246.238281 265.964844 248.398438 C 259.480469 250.558594 254.261719 243.898438 252.460938 240.300781 L 249.757812 199.800781 L 241.65625 199.800781 C 232.707031 199.800781 225.449219 192.546875 225.449219 183.597656 Z M 225.449219 183.597656 " fill-opacity="1" fill-rule="nonzero"/><path fill="#9ed44a" d="M 270.011719 214.929688 C 276.253906 199.859375 279.46875 183.710938 279.46875 167.398438 L 225.449219 167.398438 L 225.449219 183.597656 C 225.449219 192.546875 232.707031 199.800781 241.65625 199.800781 L 249.757812 199.800781 L 252.460938 240.300781 C 252.824219 241.03125 253.335938 241.894531 253.96875 242.78125 C 260.484375 234.25 265.882812 224.890625 270.011719 214.929688 Z M 270.011719 214.929688 " fill-opacity="1" fill-rule="evenodd"/><g clip-path="url(#56556ffe40)"><path fill="#000" d="M 194.328125 49.792969 C 205.042969 29.925781 232.273438 20.742188 261.882812 21.660156 C 276.4375 22.113281 290.996094 25.023438 303.414062 29.949219 C 315.894531 34.898438 325.792969 41.71875 331.554688 49.691406 C 332.257812 50.660156 332.257812 51.9375 331.554688 52.90625 C 325.792969 60.878906 315.894531 67.699219 303.414062 72.652344 C 290.996094 77.578125 276.4375 80.484375 261.882812 80.9375 C 232.273438 81.855469 205.042969 72.671875 194.328125 52.804688 C 193.824219 51.871094 193.824219 50.730469 194.328125 49.792969 Z M 340.3125 43.367188 C 332.929688 33.15625 321.007812 25.308594 307.398438 19.910156 C 293.722656 14.484375 277.914062 11.351562 262.214844 10.867188 C 233.273438 9.96875 202.652344 18.121094 187.636719 40.050781 C 172.621094 18.121094 142 9.96875 113.054688 10.867188 C 97.359375 11.351562 81.550781 14.484375 67.875 19.910156 C 54.265625 25.308594 42.34375 33.15625 34.960938 43.367188 C 31.53125 48.113281 31.53125 54.488281 34.960938 59.230469 C 42.34375 69.445312 54.265625 77.289062 67.875 82.691406 C 81.550781 88.117188 97.359375 91.246094 113.054688 91.734375 C 138.867188 92.53125 166.011719 86.132812 182.234375 69.191406 L 182.234375 162 L 36.382812 162 C 33.398438 162 30.980469 164.417969 30.980469 167.398438 C 30.980469 187.964844 35.03125 208.328125 42.90625 227.328125 C 50.777344 246.328125 62.316406 263.589844 76.863281 278.132812 C 91.410156 292.675781 108.679688 304.207031 127.6875 312.078125 C 146.691406 319.949219 167.0625 324 187.636719 324 C 208.207031 324 228.578125 319.949219 247.585938 312.078125 C 266.59375 304.207031 283.863281 292.675781 298.410156 278.132812 C 312.957031 263.589844 324.496094 246.328125 332.367188 227.328125 C 340.238281 208.328125 344.292969 187.964844 344.292969 167.398438 C 344.292969 164.417969 341.875 162 338.890625 162 L 193.039062 162 L 193.039062 69.191406 C 209.261719 86.132812 236.402344 92.53125 262.214844 91.734375 C 277.914062 91.246094 293.722656 88.117188 307.398438 82.691406 C 321.007812 77.289062 332.929688 69.445312 340.3125 59.230469 C 343.742188 54.488281 343.742188 48.113281 340.3125 43.367188 Z M 52.886719 223.195312 C 46.246094 207.171875 42.527344 190.105469 41.882812 172.800781 L 95.804688 172.800781 L 95.804688 183.597656 C 95.804688 192.546875 103.058594 199.800781 112.007812 199.800781 L 121.175781 199.800781 C 133.054688 199.800781 140.898438 212.152344 135.839844 222.898438 L 115.171875 266.800781 C 111.53125 274.527344 104.152344 279.730469 95.78125 280.652344 C 91.855469 277.472656 88.089844 274.082031 84.503906 270.496094 C 70.960938 256.957031 60.214844 240.882812 52.886719 223.195312 Z M 106.609375 183.597656 L 106.609375 172.800781 L 220.046875 172.800781 L 220.046875 181.800781 C 220.046875 194.722656 230.527344 205.199219 243.457031 205.199219 C 245.445312 205.199219 247.058594 206.8125 247.058594 208.800781 L 247.058594 236.730469 C 247.058594 250.3125 262.777344 257.863281 273.386719 249.378906 L 297.964844 229.722656 C 306.621094 222.800781 312.648438 213.132812 315.054688 202.316406 L 321.617188 172.800781 L 333.386719 172.800781 C 332.746094 190.105469 329.027344 207.171875 322.386719 223.195312 C 315.054688 240.882812 304.3125 256.957031 290.769531 270.496094 C 277.226562 284.035156 261.148438 294.773438 243.453125 302.101562 C 225.753906 309.429688 206.789062 313.199219 187.636719 313.199219 C 168.484375 313.199219 149.515625 309.429688 131.820312 302.101562 C 123.070312 298.476562 114.714844 294.019531 106.863281 288.800781 C 114.683594 285.476562 121.195312 279.371094 124.949219 271.398438 L 145.613281 227.496094 C 154.042969 209.589844 140.976562 189 121.175781 189 L 112.007812 189 C 109.027344 189 106.609375 186.582031 106.609375 183.597656 Z M 310.546875 172.800781 L 230.851562 172.800781 L 230.851562 181.800781 C 230.851562 188.757812 236.496094 194.398438 243.457031 194.398438 C 251.410156 194.398438 257.859375 200.847656 257.859375 208.800781 L 257.859375 236.730469 C 257.859375 241.257812 263.101562 243.773438 266.636719 240.945312 L 291.214844 221.289062 C 297.949219 215.90625 302.636719 208.382812 304.507812 199.972656 Z M 113.390625 21.660156 C 143 20.742188 170.230469 29.925781 180.941406 49.792969 C 181.445312 50.730469 181.445312 51.871094 180.941406 52.804688 C 170.230469 72.671875 143 81.855469 113.390625 80.9375 C 98.835938 80.484375 84.277344 77.578125 71.859375 72.652344 C 59.378906 67.699219 49.480469 60.878906 43.71875 52.90625 C 43.015625 51.9375 43.015625 50.660156 43.71875 49.691406 C 49.480469 41.71875 59.378906 34.898438 71.859375 29.949219 C 84.277344 25.023438 98.835938 22.113281 113.390625 21.660156 Z M 113.390625 21.660156 " fill-opacity="1" fill-rule="evenodd"/></g><path fill="#000" d="M 64.386719 183.972656 C 67.320312 183.449219 70.128906 185.402344 70.65625 188.335938 C 72.421875 198.210938 75.433594 207.820312 79.617188 216.933594 C 80.863281 219.644531 79.671875 222.851562 76.960938 224.09375 C 74.25 225.339844 71.042969 224.148438 69.796875 221.4375 C 65.234375 211.492188 61.949219 201.011719 60.019531 190.242188 C 59.492188 187.304688 61.449219 184.5 64.386719 183.972656 Z M 64.386719 183.972656 " fill-opacity="1" fill-rule="evenodd"/><g fill="#f8fff5" fill-opacity="1"><g transform="translate(25.153063, 262.836639)"><g><path d="M 15.921875 8.671875 L 12.125 1.875 L 3.703125 6.59375 L 1.015625 1.796875 L 20.6875 -9.21875 L 23.375 -4.421875 L 15.671875 -0.109375 L 19.46875 6.6875 L 27.171875 2.375 L 29.84375 7.140625 L 10.171875 18.15625 L 7.5 13.390625 Z M 15.921875 8.671875 "/></g></g></g><g fill="#f8fff5" fill-opacity="1"><g transform="translate(44.932195, 294.893062)"><g><path d="M 22.59375 -8.359375 L 25.8125 -4.671875 L 14.234375 16.34375 L 10.578125 12.15625 L 13.578125 7.34375 L 8.796875 1.828125 L 3.5625 4.09375 L -0.015625 -0.03125 Z M 15.828125 3.734375 C 16.179688 3.148438 16.539062 2.539062 16.90625 1.90625 C 17.28125 1.269531 17.644531 0.648438 18 0.046875 C 18.363281 -0.546875 18.707031 -1.097656 19.03125 -1.609375 C 19.363281 -2.128906 19.644531 -2.570312 19.875 -2.9375 C 19.457031 -2.757812 18.96875 -2.546875 18.40625 -2.296875 C 17.851562 -2.046875 17.253906 -1.78125 16.609375 -1.5 C 15.960938 -1.226562 15.304688 -0.953125 14.640625 -0.671875 C 13.972656 -0.398438 13.320312 -0.132812 12.6875 0.125 Z M 15.828125 3.734375 "/></g></g></g><g fill="#f8fff5" fill-opacity="1"><g transform="translate(69.881088, 321.226967)"><g><path d="M 15.40625 -16.578125 C 15.5625 -16.460938 15.878906 -16.222656 16.359375 -15.859375 C 16.835938 -15.503906 17.367188 -15.101562 17.953125 -14.65625 C 18.535156 -14.207031 19.101562 -13.773438 19.65625 -13.359375 C 20.21875 -12.941406 20.644531 -12.617188 20.9375 -12.390625 C 23.1875 -10.660156 24.539062 -8.929688 25 -7.203125 C 25.457031 -5.472656 25.035156 -3.765625 23.734375 -2.078125 C 22.859375 -0.953125 21.867188 -0.234375 20.765625 0.078125 C 19.660156 0.390625 18.484375 0.390625 17.234375 0.078125 C 17.535156 0.773438 17.695312 1.523438 17.71875 2.328125 C 17.738281 3.140625 17.664062 4.03125 17.5 5 C 17.332031 5.976562 17.09375 7.0625 16.78125 8.25 C 16.46875 9.4375 16.125 10.742188 15.75 12.171875 L 11.09375 8.5625 C 11.476562 6.90625 11.835938 5.457031 12.171875 4.21875 C 12.515625 2.976562 12.769531 1.90625 12.9375 1 C 13.101562 0.101562 13.144531 -0.628906 13.0625 -1.203125 C 12.988281 -1.773438 12.726562 -2.238281 12.28125 -2.59375 L 11.828125 -2.9375 L 5.984375 4.625 L 1.625 1.265625 Z M 13.921875 -5.65625 L 15.015625 -4.8125 C 15.640625 -4.332031 16.3125 -4.113281 17.03125 -4.15625 C 17.75 -4.195312 18.421875 -4.625 19.046875 -5.4375 C 19.304688 -5.769531 19.507812 -6.113281 19.65625 -6.46875 C 19.800781 -6.820312 19.867188 -7.175781 19.859375 -7.53125 C 19.847656 -7.882812 19.738281 -8.242188 19.53125 -8.609375 C 19.332031 -8.972656 19.019531 -9.328125 18.59375 -9.671875 L 17.609375 -10.421875 Z M 13.921875 -5.65625 "/></g></g></g><g fill="#f8fff5" fill-opacity="1"><g transform="translate(97.903789, 340.889282)"><g><path d="M 12.546875 -18.84375 L 17.390625 -16.234375 L 6.65625 3.59375 L 1.8125 0.984375 Z M 12.546875 -18.84375 "/></g></g></g><g fill="#f8fff5" fill-opacity="1"><g transform="translate(119.307318, 351.627947)"><g><path d="M 9.40625 -5.875 L 7.421875 -21.28125 L 12.890625 -19.375 L 13.828125 -9.90625 L 20.53125 -16.703125 L 25.9375 -14.828125 L 14.484375 -3.796875 L 11.734375 4.09375 L 6.5625 2.296875 Z M 9.40625 -5.875 "/></g></g></g><g fill="#f8fff5" fill-opacity="1"><g transform="translate(152.09224, 361.646437)"><g><path d="M 11.59375 -21.140625 L 16.4375 -20.453125 L 21.453125 3.015625 L 15.953125 2.25 L 15.0625 -3.359375 L 7.84375 -4.375 L 5.375 0.75 L -0.03125 0 Z M 14.421875 -7.546875 C 14.285156 -8.210938 14.148438 -8.90625 14.015625 -9.625 C 13.878906 -10.351562 13.753906 -11.0625 13.640625 -11.75 C 13.523438 -12.445312 13.414062 -13.097656 13.3125 -13.703125 C 13.21875 -14.316406 13.140625 -14.828125 13.078125 -15.234375 C 12.878906 -14.835938 12.648438 -14.359375 12.390625 -13.796875 C 12.140625 -13.242188 11.863281 -12.648438 11.5625 -12.015625 C 11.257812 -11.390625 10.941406 -10.75 10.609375 -10.09375 C 10.285156 -9.445312 9.972656 -8.820312 9.671875 -8.21875 Z M 14.421875 -7.546875 "/></g></g></g><g fill="#f8fff5" fill-opacity="1"><g transform="translate(188.050942, 365.071775)"><g><path d="M 1.09375 -22.625 L 6.59375 -22.859375 L 7.390625 -4.359375 L 15.296875 -4.703125 L 15.46875 -0.671875 L 2.0625 -0.09375 Z M 1.09375 -22.625 "/></g></g></g><g fill="#f8fff5" fill-opacity="1"><g transform="translate(217.353529, 362.552224)"><g><path d="M -2.25 -22.53125 L 3.140625 -23.578125 L 7.421875 -1.4375 L 2.03125 -0.390625 Z M -2.25 -22.53125 "/></g></g></g><g fill="#f8fff5" fill-opacity="1"><g transform="translate(240.773081, 357.303661)"><g><path d="M -5.921875 -21.84375 L -0.765625 -23.765625 L 7.09375 -2.640625 L 1.9375 -0.71875 Z M 10.546875 -27.96875 C 10.804688 -26.382812 10.941406 -24.992188 10.953125 -23.796875 C 10.960938 -22.597656 10.882812 -21.519531 10.71875 -20.5625 C 10.550781 -19.613281 10.304688 -18.769531 9.984375 -18.03125 C 9.660156 -17.300781 9.300781 -16.613281 8.90625 -15.96875 L 20.34375 -7.5625 L 14.59375 -5.4375 L 3.109375 -14.34375 L 2.96875 -14.71875 C 3.726562 -15.5 4.3125 -16.300781 4.71875 -17.125 C 5.132812 -17.945312 5.414062 -18.820312 5.5625 -19.75 C 5.71875 -20.675781 5.773438 -21.660156 5.734375 -22.703125 C 5.703125 -23.742188 5.601562 -24.867188 5.4375 -26.078125 Z M 10.546875 -27.96875 "/></g></g></g><g fill="#f8fff5" fill-opacity="1"><g transform="translate(273.935178, 343.402633)"><g><path d="M -4.6875 -23.65625 L -0.53125 -26.234375 L 18.390625 -11.453125 L 13.671875 -8.515625 L 9.40625 -12.25 L 3.21875 -8.390625 L 4.609375 -2.859375 L -0.03125 0.015625 Z M 6.203125 -15.03125 C 5.671875 -15.46875 5.125 -15.921875 4.5625 -16.390625 C 4 -16.859375 3.445312 -17.316406 2.90625 -17.765625 C 2.375 -18.222656 1.875 -18.65625 1.40625 -19.0625 C 0.945312 -19.46875 0.5625 -19.804688 0.25 -20.078125 C 0.351562 -19.648438 0.484375 -19.140625 0.640625 -18.546875 C 0.804688 -17.953125 0.976562 -17.316406 1.15625 -16.640625 C 1.332031 -15.960938 1.5 -15.269531 1.65625 -14.5625 C 1.8125 -13.851562 1.972656 -13.164062 2.140625 -12.5 Z M 6.203125 -15.03125 "/></g></g></g><g fill="#f8fff5" fill-opacity="1"><g transform="translate(303.897408, 322.951894)"><g><path d="M -13.921875 -17.84375 C -13.773438 -17.976562 -13.488281 -18.253906 -13.0625 -18.671875 C -12.632812 -19.097656 -12.148438 -19.5625 -11.609375 -20.0625 C -11.078125 -20.570312 -10.5625 -21.0625 -10.0625 -21.53125 C -9.570312 -22.007812 -9.191406 -22.375 -8.921875 -22.625 C -6.847656 -24.570312 -4.921875 -25.632812 -3.140625 -25.8125 C -1.359375 -26 0.253906 -25.316406 1.703125 -23.765625 C 2.679688 -22.722656 3.234375 -21.628906 3.359375 -20.484375 C 3.492188 -19.347656 3.3125 -18.1875 2.8125 -17 C 3.539062 -17.1875 4.304688 -17.226562 5.109375 -17.125 C 5.910156 -17.019531 6.78125 -16.804688 7.71875 -16.484375 C 8.664062 -16.160156 9.695312 -15.75 10.8125 -15.25 C 11.9375 -14.757812 13.171875 -14.21875 14.515625 -13.625 L 10.21875 -9.59375 C 8.632812 -10.238281 7.257812 -10.828125 6.09375 -11.359375 C 4.925781 -11.890625 3.910156 -12.304688 3.046875 -12.609375 C 2.179688 -12.921875 1.457031 -13.082031 0.875 -13.09375 C 0.289062 -13.101562 -0.207031 -12.914062 -0.625 -12.53125 L -1.03125 -12.140625 L 5.515625 -5.171875 L 1.5 -1.40625 Z M -3.375 -14.640625 L -2.359375 -15.59375 C -1.796875 -16.125 -1.476562 -16.75 -1.40625 -17.46875 C -1.34375 -18.195312 -1.660156 -18.929688 -2.359375 -19.671875 C -2.640625 -19.984375 -2.941406 -20.238281 -3.265625 -20.4375 C -3.597656 -20.632812 -3.9375 -20.753906 -4.28125 -20.796875 C -4.632812 -20.847656 -5.007812 -20.800781 -5.40625 -20.65625 C -5.800781 -20.519531 -6.195312 -20.257812 -6.59375 -19.875 L -7.5 -19.03125 Z M -3.375 -14.640625 "/></g></g></g><g fill="#f8fff5" fill-opacity="1"><g transform="translate(327.999901, 298.31604)"><g><path d="M -8.1875 -26.90625 L -5.375 -23.953125 L -8.453125 -19.765625 L 6.46875 -8.796875 L 3.21875 -4.375 L -11.703125 -15.34375 L -14.890625 -11.015625 L -18.125 -13.40625 Z M -8.1875 -26.90625 "/></g></g></g><g fill="#f8fff5" fill-opacity="1"><g transform="translate(345.350186, 272.454648)"><g><path d="M -2.453125 -7.515625 C -2.023438 -8.335938 -1.453125 -8.847656 -0.734375 -9.046875 C -0.015625 -9.242188 0.71875 -9.144531 1.46875 -8.75 C 2.21875 -8.363281 2.738281 -7.8125 3.03125 -7.09375 C 3.332031 -6.375 3.257812 -5.585938 2.8125 -4.734375 C 2.382812 -3.898438 1.796875 -3.390625 1.046875 -3.203125 C 0.296875 -3.015625 -0.421875 -3.097656 -1.109375 -3.453125 C -1.867188 -3.847656 -2.394531 -4.40625 -2.6875 -5.125 C -2.976562 -5.851562 -2.898438 -6.648438 -2.453125 -7.515625 Z M -18.546875 -13.21875 L -15.890625 -18.375 L -2.8125 -10.515625 L -5.03125 -6.234375 Z M -18.546875 -13.21875 "/></g></g></g></svg>